Coordinates
version=1
nRows=14
nColumns=36
inDegrees=yes

Units are S.I. units (second, meters, Newtons, ...)
If the header above contains a line with 'inDegrees', this indicates whether rotational values are in degrees (yes) or radians (no).

endheader
time	pelvis_tilt	pelvis_list	pelvis_rotation	pelvis_tx	pelvis_ty	pelvis_tz	hip_flexion_r	hip_adduction_r	hip_rotation_r	knee_angle_r	knee_angle_r_beta	ankle_angle_r	subtalar_angle_r	mtp_angle_r	hip_flexion_l	hip_adduction_l	hip_rotation_l	knee_angle_l	knee_angle_l_beta	ankle_angle_l	subtalar_angle_l	mtp_angle_l	lumbar_extension	lumbar_bending	lumbar_rotation	arm_flex_r	arm_add_r	arm_rot_r	elbow_flex_r	pro_sup_r	arm_flex_l	arm_add_l	arm_rot_l	elbow_flex_l	pro_sup_l
      3.86666670	     -1.93993717	     -0.96181807	      2.71540654	      1.17087356	      0.98532591	      0.18554431	      5.59990070	     -3.18200124	      1.21084385	     12.58079527	      0.21957630	     12.03768578	     -0.12137794	     -7.49999987	      0.94228612	     -3.18378455	      5.84188848	      7.51866680	      0.13122549	     11.18757377	     -2.40026003	     -7.49999987	     -1.67693376	      0.23845284	      3.11037838	     -1.43706806	    -17.88169366	     -5.80809720	     48.05046444	     83.42589426	     23.88796919	    -12.65948162	     30.44256654	     48.18556534	     84.19279923
      3.88333330	     -1.85530146	     -0.99113634	      2.75876526	      1.16999821	      0.98542513	      0.18559900	      5.41275878	     -3.14124902	      1.17617543	     12.43100655	      0.21696199	     12.04575939	      0.01651110	     -7.49999987	      0.78848379	     -3.20535557	      5.98996866	      7.39091076	      0.12899573	     11.10009818	     -2.45308008	     -7.49999987	     -1.72827725	      0.13863209	      2.90088681	     -2.08974413	    -16.90072931	     -5.51661862	     46.81368628	     82.64982219	     22.31401628	    -12.87870110	     30.35173363	     47.03091550	     83.25904412
      3.90000000	     -1.82124254	     -1.02286144	      2.76035121	      1.17049113	      0.98293257	      0.18533565	      5.28481994	     -3.11933451	      1.21034771	     12.27439777	      0.21422865	     11.99653912	      0.00810100	     -7.49999987	      0.63420804	     -3.23427725	      5.98319179	      7.19670317	      0.12560617	     11.11349597	     -2.21753006	     -7.49999987	     -1.86473918	      0.05020346	      2.64187834	     -2.91599454	    -16.11787982	     -5.54050194	     46.59344284	     81.21472675	     21.02500634	    -13.24423672	     30.40146042	     46.57251014	     81.72491931
      3.91666670	     -1.70473362	     -1.02609680	      2.85228220	      1.16925775	      0.98308837	      0.18520014	      5.13593178	     -3.13714361	      1.09803218	     12.20610784	      0.21303677	     12.13745437	      0.25930341	     -7.49999987	      0.53873921	     -3.21440946	      6.30751197	      7.21148634	      0.12586418	     11.11514100	     -2.49307339	     -7.49999987	     -1.82416824	     -0.17799846	      2.44836894	     -2.57908393	    -15.21245356	     -5.48301394	     43.21423191	     80.95852289	     20.46894284	    -12.86345214	     30.74115610	     43.29379740	     81.06841527
      3.93333330	     -1.70556631	     -1.05426625	      2.88805662	      1.17346886	      0.98117647	      0.18280779	      4.98109315	     -3.14539208	      1.11725047	     11.96775086	      0.20887666	     12.12669446	      0.23729371	     -7.49999987	      0.41806127	     -3.23523485	      6.36248983	      7.01951529	      0.12251365	     11.04169692	     -2.40829259	     -7.49999987	     -1.96710484	     -0.15819886	      2.45504127	     -3.33269783	    -14.59072218	     -5.47726161	     42.38763271	     81.14491258	     19.09704694	    -13.11800838	     30.97276090	     42.11439679	     81.17402401
      3.95000000	     -1.58225856	     -1.05107001	      2.94595679	      1.17632536	      0.98432628	      0.18101904	      4.75697740	     -3.19152902	      0.99044316	     11.89567578	      0.20761871	     12.22843669	      0.44762116	     -7.49999987	      0.24896009	     -3.21417567	      6.39578397	      7.02123968	      0.12254375	     10.92648396	     -2.37138007	     -7.49999987	     -1.73000131	     -0.15048416	      2.19726892	     -2.90691249	    -13.45729743	     -5.94982327	     38.28326793	     81.59496071	     17.94782291	    -12.49813452	     31.09855504	     37.74412920	     80.95519941
      3.96666670	     -1.52766231	     -1.07107248	      2.97831362	      1.17676789	      0.98187948	      0.18057709	      4.55662380	     -3.21476782	      1.00570461	     11.75125309	      0.20509806	     12.21017420	      0.38744335	     -7.49999987	      0.04351134	     -3.22324386	      6.53343966	      6.84836440	      0.11952651	     10.86830055	     -2.33536402	     -7.49999987	     -1.66367629	     -0.10542104	      2.03784862	     -3.01654243	    -12.70437708	     -6.46626588	     35.76561014	     85.44613486	     16.85604315	    -12.33536240	     32.11109171	     34.71815151	     81.14675268
      3.98333330	     -1.41154658	     -1.06690737	      3.00080750	      1.18317211	      0.98125481	      0.18151462	      4.28758436	     -3.22505812	      1.03708154	     11.69884946	      0.20418344	     12.35838858	      0.37703039	     -7.49999987	     -0.19184831	     -3.19985454	      6.57657467	      6.79267341	      0.11855452	     10.82451393	     -2.32641199	     -7.49999987	     -1.87686048	     -0.13999624	      2.13186106	     -3.87092849	    -12.30448692	     -6.51366180	     35.32286776	     85.45228041	     15.01001268	    -12.55616259	     32.26407231	     33.81603779	     81.14140803
      4.00000000	     -1.31206010	     -1.08688261	      3.04792630	      1.19096692	      0.98247796	      0.18184518	      3.88487504	     -3.23853120	      0.89491289	     11.49259516	      0.20058363	     12.53064741	      0.64181146	     -7.49999987	     -0.64577175	     -3.21879027	      6.72941160	      6.39378552	      0.11159261	     10.63723142	     -2.23534938	     -7.49999987	     -1.42720329	     -0.12299368	      1.58931311	     -3.27405336	    -11.34990602	     -7.61416260	     31.75657620	     85.92854968	     13.71152854	    -11.80538638	     30.95224246	     28.87074519	     80.76554535
      4.01666670	     -1.14828835	     -1.06926073	      3.08027203	      1.18987697	      0.98266161	      0.18195245	      3.50201270	     -3.24687823	      0.85444024	     11.38792216	      0.19875674	     12.73915144	      0.75759234	     -7.49999987	     -1.02975971	     -3.20486793	      6.81724814	      6.22762156	      0.10869250	     10.54360756	     -2.21762234	     -7.49999987	     -1.35961780	     -0.22288839	      1.24443741	     -3.45522385	    -10.81510673	     -7.67276511	     29.98818376	     86.72291732	     12.36720823	    -11.56667731	     30.47103859	     26.31809642	     80.83427510
      4.03333330	     -1.04208027	     -1.02050785	      3.08182366	      1.19380220	      0.98091811	      0.17910934	      3.18001431	     -3.32704311	      0.87382523	     11.31987320	      0.19756906	     12.92111744	      0.69379674	     -7.49999987	     -1.41615790	     -3.13395277	      6.90964084	      6.00632771	      0.10483019	     10.60692919	     -2.18796140	     -7.49999987	     -1.33557997	     -0.29916869	      1.31073647	     -4.27494111	    -10.57532061	     -7.66164122	     29.64416665	     86.79866221	     10.88576820	    -11.63315670	     30.54481054	     25.66897598	     80.86055237
      4.05000000	     -0.86314359	     -0.99033783	      3.11282579	      1.19260968	      0.97709929	      0.17931836	      2.81625929	     -3.36552422	      0.74046722	     11.23858281	      0.19615027	     13.15760475	      0.92098985	     -7.49999987	     -1.75516236	     -3.08815809	      6.97091587	      5.90440097	      0.10305124	     10.51023423	     -2.15680788	     -7.49999987	     -1.16965839	     -0.38340139	      0.70158512	     -3.91969360	    -10.12771075	     -8.46076139	     27.39462145	     91.42457837	      9.62994700	    -11.05121024	     27.73998765	     22.77954712	     83.60768601
      4.06666670	     -0.74025646	     -0.93721411	      3.13980711	      1.19668964	      0.97988949	      0.17710494	      2.53731165	     -3.46379352	      0.77860230	     11.27578733	      0.19679961	     13.29474521	      0.84529497	     -7.49999987	     -2.01088460	     -3.01258543	      7.07398689	      5.87558257	      0.10254826	     10.56638415	     -2.14955387	     -7.49999987	     -1.18652115	     -0.44902743	      0.84539852	     -4.60006812	    -10.05547004	     -8.44240400	     27.13374437	     91.44630400	      8.51311117	    -11.20870749	     27.80103278	     22.33748690	     83.63012175
      4.08333330	     -0.58474476	     -0.90426187	      3.18029573	      1.19953291	      0.98079717	      0.17995938	      2.22696204	     -3.49778321	      0.84967302	     11.26140970	      0.19654868	     13.52396615	      0.78045655	     -7.49999987	     -2.29942675	     -2.98086037	      7.15447000	      5.85607150	      0.10220773	     10.60467972	     -2.17012918	     -7.49999987	     -1.17687738	     -0.53480632	      0.93867873	     -5.29182999	     -9.90457594	     -8.39503286	     26.84972328	     91.48852337	      7.37955743	    -11.44830514	     27.86429823	     21.83354561	     83.66296395
